<svg width="47" height="48" viewBox="0 0 47 48" fill="none" xmlns="http://www.w3.org/2000/svg">
<g clip-path="url(#clip0)">
<path d="M42.488 12C40.8335 12 39.488 13.3455 39.488 15C39.488 16.6544 40.8336 17.9999 42.488 17.9999C44.1425 17.9999 45.488 16.6545 45.488 15C45.488 13.3455 44.1425 12 42.488 12ZM42.488 16.5C41.6608 16.5 40.988 15.8273 40.988 15C40.988 14.1727 41.6607 13.4999 42.488 13.4999C43.3153 13.4999 43.988 14.1727 43.988 15C43.9879 15.8273 43.3152 16.5 42.488 16.5Z" fill="black"/>
<path d="M3.48795 36.75C1.83349 36.75 0.487976 38.0955 0.487976 39.75C0.487976 41.4044 1.83349 42.7499 3.48795 42.7499C5.14249 42.7499 6.48792 41.4044 6.48792 39.75C6.48792 38.0955 5.14249 36.75 3.48795 36.75ZM3.48795 41.25C2.66072 41.25 1.98792 40.5773 1.98792 39.75C1.98792 38.9227 2.66063 38.2499 3.48795 38.2499C4.31517 38.2499 4.98798 38.9227 4.98798 39.75C4.98798 40.5773 4.31526 41.25 3.48795 41.25Z" fill="black"/>
<path d="M41.0337 12.948L34.5635 9.82427C34.1899 9.64348 33.7422 9.80098 33.5622 10.1738C33.3822 10.5466 33.5389 10.9951 33.9118 11.1751L40.382 14.2988C40.487 14.3498 40.598 14.3738 40.7075 14.3738C40.9864 14.3738 41.2542 14.2178 41.3832 13.9492C41.5632 13.5765 41.4065 13.128 41.0337 12.948Z" fill="black"/>
<path d="M34.238 42C32.5835 42 31.2381 43.3455 31.2381 45C31.2381 46.6544 32.5835 48 34.238 48C35.8926 48 37.238 46.6545 37.238 45.0001C37.238 43.3456 35.8926 42 34.238 42ZM34.238 46.5C33.4108 46.5 32.738 45.8273 32.738 45C32.738 44.1727 33.4108 43.5 34.238 43.5C35.0653 43.5 35.7381 44.1727 35.7381 45.0001C35.7381 45.8274 35.0653 46.5 34.238 46.5Z" fill="black"/>
<path d="M32.7837 42.9481L26.3135 39.8244C25.9399 39.6436 25.4922 39.8004 25.3122 40.1739C25.1322 40.5467 25.2889 40.9952 25.6618 41.1752L32.132 44.2989C32.2371 44.3499 32.3481 44.3739 32.4575 44.3739C32.7364 44.3739 33.0043 44.2179 33.1333 43.9494C33.3132 43.5765 33.1565 43.1281 32.7837 42.9481Z" fill="black"/>
<path d="M22.988 23.25C21.3335 23.25 19.9881 24.5955 19.9881 26.25C19.9881 27.9045 21.3336 29.2499 22.988 29.2499C24.6426 29.2499 25.988 27.9044 25.988 26.25C25.988 24.5955 24.6426 23.25 22.988 23.25ZM22.988 27.75C22.1608 27.75 21.488 27.0773 21.488 26.25C21.488 25.4227 22.1607 24.7499 22.988 24.7499C23.8153 24.7499 24.4881 25.4227 24.4881 26.25C24.4881 27.0773 23.8153 27.75 22.988 27.75Z" fill="black"/>
<path d="M21.6695 24.2821L16.6993 20.4083C16.3722 20.1555 15.9013 20.2118 15.6462 20.5388C15.392 20.8658 15.4497 21.3368 15.7768 21.5918L20.747 25.4656C20.8843 25.5721 21.0462 25.6239 21.2075 25.6239C21.431 25.6239 21.6515 25.5249 21.8 25.3352C22.0543 25.008 21.9965 24.537 21.6695 24.2821Z" fill="black"/>
<path d="M36.4879 22.5C31.9392 22.5 28.2379 26.2013 28.2379 30.75C28.2379 35.2988 31.9392 39.0001 36.4879 39.0001C41.0367 39.0001 44.738 35.2988 44.738 30.75C44.738 26.2013 41.0367 22.5 36.4879 22.5ZM36.4879 37.4999C32.7657 37.4999 29.7379 34.4722 29.7379 30.7499C29.7379 27.0277 32.7657 23.9999 36.4879 23.9999C40.2102 23.9999 43.2379 27.0277 43.2379 30.7499C43.2379 34.4722 40.2102 37.4999 36.4879 37.4999Z" fill="black"/>
<path d="M36.4879 25.5C34.8334 25.5 33.488 26.8455 33.488 28.5C33.488 30.1545 34.8335 31.4999 36.4879 31.4999C38.1425 31.4999 39.4879 30.1544 39.4879 28.5C39.4879 26.8455 38.1425 25.5 36.4879 25.5ZM36.4879 30C35.6607 30 34.9879 29.3273 34.9879 28.5C34.9879 27.6727 35.6606 26.9999 36.4879 26.9999C37.3152 26.9999 37.988 27.6727 37.988 28.5C37.988 29.3273 37.3152 30 36.4879 30Z" fill="black"/>
<path d="M38.6637 33H34.3122C33.0305 33 31.9879 34.0148 31.9879 35.2612V37.2383C31.9879 37.506 32.1304 37.7535 32.3622 37.8878C33.6192 38.6152 35.0457 39 36.4879 39C37.9302 39 39.3567 38.6152 40.6137 37.8878C40.8455 37.7543 40.9879 37.506 40.9879 37.2391V35.262C40.9879 34.0148 39.9455 33 38.6637 33ZM39.4879 36.7912C37.6212 37.7212 35.3547 37.7212 33.4879 36.7912V35.262C33.4879 34.842 33.8576 34.5 34.3121 34.5H38.6636C39.1181 34.5 39.4878 34.842 39.4878 35.262V36.7912H39.4879Z" fill="black"/>
<path d="M18.488 31.5C13.9392 31.5 10.238 35.2012 10.238 39.75C10.238 44.2988 13.9392 47.9999 18.488 47.9999C23.0368 47.9999 26.738 44.2987 26.738 39.7499C26.738 35.2012 23.0368 31.5 18.488 31.5ZM18.488 46.4999C14.7657 46.4999 11.738 43.4722 11.738 39.7499C11.738 36.0277 14.7657 32.9999 18.488 32.9999C22.2102 32.9999 25.238 36.0277 25.238 39.7499C25.238 43.4722 22.2102 46.4999 18.488 46.4999Z" fill="black"/>
<path d="M18.488 34.5C16.8335 34.5 15.488 35.8455 15.488 37.5C15.488 39.1545 16.8335 40.4999 18.488 40.4999C20.1424 40.4999 21.488 39.1544 21.488 37.5C21.488 35.8455 20.1425 34.5 18.488 34.5ZM18.488 39C17.6608 39 16.988 38.3273 16.988 37.5C16.988 36.6727 17.6607 35.9999 18.488 35.9999C19.3152 35.9999 19.988 36.6727 19.988 37.5C19.988 38.3273 19.3152 39 18.488 39Z" fill="black"/>
<path d="M20.6637 42H16.3123C15.0306 42 13.988 43.0148 13.988 44.2613V46.2383C13.988 46.506 14.1305 46.7535 14.3622 46.8878C15.6193 47.6152 17.0457 48 18.488 48C19.9303 48 21.3568 47.6152 22.6138 46.8878C22.8455 46.7543 22.988 46.5061 22.988 46.2391V44.262C22.988 43.0148 21.9455 42 20.6637 42ZM21.488 45.7912C19.6212 46.7212 17.3547 46.7212 15.4879 45.7912V44.262C15.4879 43.842 15.8577 43.5 16.3122 43.5H20.6637C21.1181 43.5 21.4879 43.842 21.4879 44.262V45.7912H21.488Z" fill="black"/>
<path d="M8.738 12.7498C4.18923 12.7498 0.487976 16.451 0.487976 20.9998C0.487976 25.5486 4.18923 29.2498 8.738 29.2498C13.2868 29.2498 16.988 25.5486 16.988 20.9998C16.9879 16.451 13.2867 12.7498 8.738 12.7498ZM8.738 27.7498C5.01575 27.7498 1.98801 24.722 1.98801 20.9998C1.98801 17.2775 5.01575 14.2498 8.738 14.2498C12.4603 14.2498 15.488 17.2775 15.488 20.9998C15.488 24.722 12.4603 27.7498 8.738 27.7498Z" fill="black"/>
<path d="M8.738 15.7502C7.08345 15.7502 5.73802 17.0958 5.73802 18.7502C5.73802 20.4047 7.08354 21.7502 8.738 21.7502C10.3925 21.7502 11.738 20.4047 11.738 18.7502C11.738 17.0958 10.3925 15.7502 8.738 15.7502ZM8.738 20.2502C7.91077 20.2502 7.23797 19.5775 7.23797 18.7502C7.23797 17.9229 7.91068 17.2502 8.738 17.2502C9.56522 17.2502 10.238 17.9229 10.238 18.7502C10.238 19.5775 9.56522 20.2502 8.738 20.2502Z" fill="black"/>
<path d="M10.9137 23.25H6.56228C5.28057 23.25 4.23801 24.2648 4.23801 25.5112V27.4883C4.23801 27.756 4.38048 28.0035 4.61225 28.1378C5.86926 28.8652 7.29572 29.25 8.73801 29.25C10.1803 29.25 11.6068 28.8652 12.8638 28.1378C13.0955 28.0043 13.238 27.756 13.238 27.4891V25.512C13.238 24.2648 12.1955 23.25 10.9137 23.25ZM11.738 27.0413C9.87127 27.9712 7.60475 27.9712 5.73795 27.0413V25.512C5.73795 25.092 6.10771 24.75 6.56219 24.75H10.9137C11.3681 24.75 11.7379 25.092 11.7379 25.512V27.0413H11.738Z" fill="black"/>
<path d="M26.738 3C22.1892 3 18.4879 6.70125 18.4879 11.25C18.4879 15.7988 22.1892 19.5001 26.738 19.5001C31.2867 19.5001 34.988 15.7988 34.988 11.25C34.9879 6.70125 31.2866 3 26.738 3ZM26.738 18C23.0157 18 19.988 14.9723 19.988 11.25C19.988 7.52777 23.0157 4.50003 26.738 4.50003C30.4602 4.50003 33.4879 7.52777 33.4879 11.25C33.4879 14.9723 30.4602 18 26.738 18Z" fill="black"/>
<path d="M26.7381 6C25.0835 6 23.7381 7.34552 23.7381 8.99997C23.7381 10.6544 25.0836 11.9999 26.7381 11.9999C28.3925 11.9999 29.738 10.6545 29.738 9.00006C29.738 7.34561 28.3925 6 26.7381 6ZM26.7381 10.5C25.9108 10.5 25.238 9.82729 25.238 8.99997C25.238 8.17274 25.9108 7.49994 26.7381 7.49994C27.5654 7.49994 28.2381 8.17266 28.2381 8.99997C28.238 9.82729 27.5653 10.5 26.7381 10.5Z" fill="black"/>
<path d="M28.9137 13.5H24.5622C23.2805 13.5 22.238 14.5148 22.238 15.7612V17.7383C22.238 18.006 22.3804 18.2535 22.6122 18.3878C23.8692 19.1152 25.2957 19.5 26.738 19.5C28.1802 19.5 29.6067 19.1152 30.8637 18.3878C31.0955 18.2543 31.2379 18.006 31.2379 17.739V15.762C31.2379 14.5147 30.1954 13.5 28.9137 13.5ZM29.7379 17.2912C27.8712 18.2212 25.6047 18.2212 23.7379 17.2912V15.762C23.7379 15.342 24.1077 15 24.5621 15H28.9136C29.3681 15 29.7378 15.342 29.7378 15.762V17.2912H29.7379Z" fill="black"/>
<path d="M19.8088 10.7617C19.5395 10.4482 19.0663 10.4107 18.7512 10.68L13.5537 15.1275C13.2387 15.3967 13.202 15.87 13.4712 16.185C13.6198 16.3582 13.8297 16.4475 14.0412 16.4475C14.2137 16.4475 14.3869 16.3883 14.5287 16.2667L19.7262 11.8192C20.0413 11.55 20.078 11.0767 19.8088 10.7617Z" fill="black"/>
<path d="M36.338 22.8009L31.838 16.8009C31.5897 16.4686 31.1195 16.4033 30.7879 16.6508C30.4564 16.8991 30.3897 17.3693 30.6379 17.7001L35.1379 23.7001C35.2857 23.8966 35.5107 24.0001 35.7386 24.0001C35.8946 24.0001 36.0529 23.9513 36.1879 23.85C36.5195 23.6018 36.5863 23.1316 36.338 22.8009Z" fill="black"/>
<path d="M30.1827 33.2301C29.9344 32.8986 29.4642 32.8319 29.1327 33.0801L24.9432 36.2219C24.6117 36.4701 24.545 36.9404 24.7932 37.2711C24.9409 37.4676 25.1659 37.5711 25.3939 37.5711C25.5506 37.5711 25.7081 37.5216 25.8432 37.421L30.0327 34.2793C30.3642 34.0312 30.431 33.5609 30.1827 33.2301Z" fill="black"/>
<path d="M10.9881 39H5.73799C5.32403 39 4.98802 39.3352 4.98802 39.75C4.98802 40.1647 5.32403 40.4999 5.73799 40.4999H10.988C11.4019 40.4999 11.7379 40.1647 11.7379 39.75C11.7379 39.3352 11.402 39 10.9881 39Z" fill="black"/>
<path d="M8.73797 3C7.08343 3 5.73792 4.34552 5.73792 5.99997C5.73792 7.65451 7.08343 8.99994 8.73789 8.99994C10.3924 8.99994 11.7379 7.65442 11.7379 5.99997C11.7379 4.34552 10.3924 3 8.73797 3ZM8.73797 7.5C7.91075 7.5 7.23794 6.82729 7.23794 5.99997C7.23794 5.17274 7.91066 4.49994 8.73797 4.49994C9.5652 4.49994 10.238 5.17266 10.238 5.99997C10.2379 6.82729 9.5652 7.5 8.73797 7.5Z" fill="black"/>
<path d="M8.73802 7.5C8.32406 7.5 7.98805 7.83521 7.98805 8.24997V13.4999C7.98805 13.9147 8.32406 14.2499 8.73802 14.2499C9.15199 14.2499 9.48799 13.9147 9.48799 13.4999V8.24997C9.48799 7.83521 9.15199 7.5 8.73802 7.5Z" fill="black"/>
</g>
<defs>
<clipPath id="clip0">
<rect width="45" height="45" fill="white" transform="translate(0.487976 3)"/>
</clipPath>
</defs>
</svg>
