<svg width="47" height="48" viewBox="0 0 47 48" fill="none" xmlns="http://www.w3.org/2000/svg">
<g clip-path="url(#clip0)">
<path d="M24.5135 21.1934C28.5719 21.1934 31.8737 17.7632 31.8737 13.5469C31.8737 9.33059 28.5719 5.90039 24.5135 5.90039C20.4551 5.90039 17.1533 9.33059 17.1533 13.5469C17.1533 17.7632 20.4551 21.1934 24.5135 21.1934ZM24.5135 8.53711C27.1725 8.53711 29.3357 10.7845 29.3357 13.5469C29.3357 16.3093 27.1725 18.5566 24.5135 18.5566C21.8545 18.5566 19.6913 16.3093 19.6913 13.5469C19.6913 10.7845 21.8545 8.53711 24.5135 8.53711Z" fill="#2F2F2F"/>
<path d="M39.4031 21.1934C41.9688 21.1934 44.0561 19.0248 44.0561 16.3594C44.0561 13.6939 41.9688 11.5254 39.4031 11.5254C36.8374 11.5254 34.7501 13.6939 34.7501 16.3594C34.7501 19.0248 36.8374 21.1934 39.4031 21.1934ZM39.4031 14.1621C40.5693 14.1621 41.5181 15.1478 41.5181 16.3594C41.5181 17.5709 40.5693 18.5566 39.4031 18.5566C38.2369 18.5566 37.2881 17.5709 37.2881 16.3594C37.2881 15.1478 38.2369 14.1621 39.4031 14.1621Z" fill="#2F2F2F"/>
<path d="M40.4267 24.1816H38.464C36.1511 24.1816 34.1546 25.6012 33.2448 27.6403C31.3717 25.516 28.6811 24.1816 25.6961 24.1816H23.3309C20.3459 24.1816 17.6554 25.516 15.7823 27.6403C14.8724 25.6012 12.8758 24.1816 10.563 24.1816H8.60023C5.43281 24.1816 2.8559 26.8426 2.8559 30.1134V39.7119C2.8559 41.1319 3.97211 42.2871 5.34415 42.2871H13.1043C13.2344 43.8604 14.5078 45.0996 16.0554 45.0996H32.9717C34.5192 45.0996 35.7926 43.8604 35.9228 42.2871H43.5942C45.0152 42.2871 46.1712 41.0909 46.1712 39.6205V30.1134C46.1711 26.8426 43.5942 24.1816 40.4267 24.1816ZM5.3939 30.1134C5.3939 28.2965 6.83226 26.8184 8.60023 26.8184H10.563C12.3309 26.8184 13.7693 28.2965 13.7693 30.1134V31.0161C12.9159 33.3245 13.0925 34.7079 13.0925 39.6504H5.3939V30.1134ZM33.3965 42.0216C33.3965 42.265 33.206 42.4629 32.9717 42.4629H16.0553C15.821 42.4629 15.6305 42.2649 15.6305 42.0216V34.8183C15.6305 30.4071 19.0849 26.8184 23.3309 26.8184H25.696C29.9421 26.8184 33.3965 30.4071 33.3965 34.8183V42.0216ZM43.6331 39.6205C43.6331 39.6659 44.1062 39.6504 35.9345 39.6504C35.9345 34.6713 36.1097 33.3207 35.2577 31.0161V30.1134C35.2577 28.2965 36.6961 26.8184 38.464 26.8184H40.4267C42.1947 26.8184 43.6331 28.2965 43.6331 30.1134V39.6205Z" fill="#2F2F2F"/>
<path d="M9.62388 21.1934C12.1895 21.1934 14.2769 19.0248 14.2769 16.3594C14.2769 13.6939 12.1895 11.5254 9.62388 11.5254C7.05822 11.5254 4.97089 13.6939 4.97089 16.3594C4.97089 19.0248 7.05822 21.1934 9.62388 21.1934ZM9.62388 14.1621C10.7901 14.1621 11.7389 15.1478 11.7389 16.3594C11.7389 17.5709 10.7901 18.5566 9.62388 18.5566C8.45767 18.5566 7.50889 17.5709 7.50889 16.3594C7.50889 15.1478 8.45767 14.1621 9.62388 14.1621Z" fill="#2F2F2F"/>
</g>
<defs>
<clipPath id="clip0">
<rect width="43.3152" height="45" fill="white" transform="translate(2.8559 3)"/>
</clipPath>
</defs>
</svg>
