<svg width="29" height="30" viewBox="0 0 29 30" fill="none" xmlns="http://www.w3.org/2000/svg">
<path d="M24.0506 19.6239C23.6216 19.6239 23.2726 19.2749 23.2726 18.846V13.3511C23.2726 9.01278 20.4055 5.33141 16.4661 4.10089C16.5845 3.77119 16.6471 3.42117 16.6471 3.06502C16.6471 1.37499 15.2717 0 13.5811 0C11.8904 0 10.5151 1.37499 10.5151 3.06508C10.5151 3.42399 10.5764 3.77348 10.6941 4.1016C6.75572 5.33271 3.88962 9.01355 3.88962 13.3511V18.846C3.88962 19.275 3.54055 19.6239 3.11154 19.6239C1.39579 19.6239 0 21.0194 0 22.7346C0 24.4497 1.39579 25.8452 3.11154 25.8452H10.3702C10.3001 26.1156 10.2634 26.3965 10.2634 26.6833C10.2634 28.5122 11.7517 30 13.5811 30C15.4104 30 16.8988 28.5122 16.8988 26.6833C16.8988 26.3966 16.8621 26.1156 16.7919 25.8452H24.0506C25.7663 25.8452 27.1621 24.4497 27.1621 22.7346C27.1622 21.0193 25.7664 19.6239 24.0506 19.6239ZM12.2825 3.06508C12.2825 2.34926 12.865 1.76689 13.5811 1.76689C14.2971 1.76689 14.8797 2.34926 14.8797 3.06508C14.8797 3.29978 14.8162 3.52824 14.698 3.72731C14.3314 3.68508 13.9588 3.66258 13.5811 3.66258C13.2037 3.66258 12.8316 3.68502 12.4653 3.72719C12.347 3.52871 12.2825 3.30208 12.2825 3.06508ZM15.1314 26.6833C15.1314 27.5378 14.4359 28.2331 13.5811 28.2331C12.7264 28.2331 12.0309 27.5378 12.0309 26.6833C12.0309 26.3814 12.117 26.0928 12.277 25.8451H14.8853C15.0453 26.0928 15.1314 26.3814 15.1314 26.6833ZM24.0506 24.0782H3.11154C2.3704 24.0782 1.76742 23.4754 1.76742 22.7345C1.76742 21.9936 2.3704 21.3908 3.11154 21.3908C4.51511 21.3908 5.65704 20.2492 5.65704 18.846V13.3511C5.65704 8.98304 9.21173 5.42941 13.5811 5.42941C17.9504 5.42941 21.5051 8.98304 21.5051 13.3511V18.846C21.5051 20.2492 22.6471 21.3908 24.0506 21.3908C24.7918 21.3908 25.3948 21.9936 25.3948 22.7345C25.3948 23.4754 24.7918 24.0782 24.0506 24.0782Z" fill="black"/>
<circle cx="21" cy="9" r="8" fill="#E65668" fill-opacity="0.44"/>
<circle cx="21" cy="9" r="5" fill="#E65668"/>
</svg>
