<svg width="33" height="31" viewBox="0 0 33 31" fill="currentColor" xmlns="http://www.w3.org/2000/svg">
<path d="M8.1296 20.6273L6.47234 22.2846C6.12909 22.6279 6.12909 23.1843 6.47234 23.5276C6.64396 23.6992 6.8689 23.785 7.09378 23.785C7.31866 23.785 7.54366 23.6992 7.71523 23.5276L9.37249 21.8703C9.71573 21.5271 9.71573 20.9706 9.37249 20.6273C9.02931 20.284 8.47278 20.284 8.1296 20.6273Z" fill="currentColor"/>
<path d="M28.6486 1.35139C27.7326 0.435218 26.4656 -0.0556218 25.1706 0.0050228C23.8764 0.0655502 22.6599 0.672464 21.8332 1.67014L20.375 3.43006L14.1439 1.94647C13.8471 1.87586 13.5347 1.96416 13.3188 2.18002L11.2473 4.25161C11.05 4.44883 10.9581 4.72792 10.9996 5.00378C11.0411 5.27958 11.2109 5.51934 11.4574 5.64983L16.3776 8.25462L14.4464 10.5853L11.8006 9.4514C11.4701 9.30977 11.087 9.38372 10.8329 9.63772L8.34692 12.1237C8.14067 12.3299 8.0502 12.625 8.10534 12.9114C8.16048 13.1978 8.35413 13.4381 8.62214 13.553L11.4893 14.7818L9.99399 16.2771L9.78681 16.0699C9.44362 15.7267 8.8871 15.7267 8.54386 16.0699L0.257466 24.3564C0.0185791 24.5953 -0.0622803 24.9499 0.0495753 25.2688C0.161372 25.5876 0.446079 25.8141 0.78188 25.8514L3.81194 26.1881L4.14862 29.2181C4.18595 29.5539 4.41241 29.8386 4.73122 29.9504C4.82632 29.9838 4.92458 30 5.02202 30C5.25124 30 5.47595 29.9102 5.64358 29.7425L13.93 21.4561C14.0948 21.2913 14.1874 21.0678 14.1874 20.8347C14.1874 20.6016 14.0949 20.3781 13.93 20.2133L13.7228 20.0061L15.2182 18.5108L16.4469 21.3779C16.5618 21.646 16.8022 21.8396 17.0885 21.8948C17.1438 21.9054 17.1996 21.9107 17.2548 21.9107C17.4856 21.9107 17.7099 21.8196 17.8762 21.6532L20.3621 19.1673C20.6162 18.9132 20.6901 18.53 20.5485 18.1996L19.4146 15.5538L21.7453 13.6227L24.35 18.5428C24.4805 18.7893 24.7203 18.9592 24.9961 19.0007C25.0396 19.0073 25.0834 19.0105 25.1268 19.0105C25.358 19.0105 25.5821 18.9191 25.7482 18.753L27.8197 16.6815C28.0356 16.4657 28.124 16.1533 28.0532 15.8564L26.5696 9.62518L28.3296 8.1669C29.3273 7.34026 29.9342 6.12391 29.9947 4.82964C30.0553 3.53536 29.5648 2.2675 28.6486 1.35139ZM13.3316 4.65309L14.2144 3.77026L19.1244 4.93932L17.523 6.8721L13.3316 4.65309ZM5.6938 27.2065L5.48139 25.295C5.43604 24.8865 5.11348 24.564 4.70491 24.5186L2.79352 24.3062L9.16536 17.9344L12.0656 20.8346L5.6938 27.2065ZM12.48 18.7631L11.2369 17.5201L13.2294 15.5276L14.0995 15.9005L14.4724 16.7706L12.48 18.7631ZM26.2297 15.7856L25.3469 16.6684L23.1279 12.4769L25.0607 10.8755L26.2297 15.7856ZM28.2391 4.74737C28.2011 5.5603 27.835 6.29395 27.2083 6.81321L17.7873 14.6192C17.4873 14.8678 17.3867 15.2842 17.5402 15.6422L18.6985 18.3449L17.5513 19.4921L15.5768 14.8849C15.4878 14.6774 15.3226 14.5122 15.1152 14.4233L10.5078 12.4488L11.6551 11.3016L14.3578 12.4599C14.7158 12.6134 15.1321 12.5128 15.3808 12.2128L23.1868 2.79163C23.7061 2.16497 24.4398 1.79893 25.2528 1.7609C26.065 1.72288 26.8303 2.01883 27.4057 2.59434C27.9812 3.16985 28.2772 3.93444 28.2391 4.74737Z" fill="currentColor"/>
</svg>
