<svg width="20" height="20" viewBox="0 0 20 20" fill="none" xmlns="http://www.w3.org/2000/svg">
<g clip-path="url(#clip0)">
<path d="M12.7587 7.24609C12.5 7.24609 12.2903 7.45577 12.2903 7.71448V16.5669C12.2903 16.8255 12.5 17.0353 12.7587 17.0353C13.0174 17.0353 13.2271 16.8255 13.2271 16.5669V7.71448C13.2271 7.45577 13.0174 7.24609 12.7587 7.24609Z" fill="black"/>
<path d="M7.23181 7.24609C6.9731 7.24609 6.76343 7.45577 6.76343 7.71448V16.5669C6.76343 16.8255 6.9731 17.0353 7.23181 17.0353C7.49052 17.0353 7.7002 16.8255 7.7002 16.5669V7.71448C7.7002 7.45577 7.49052 7.24609 7.23181 7.24609Z" fill="black"/>
<path d="M3.20357 5.95419V17.4942C3.20357 18.1762 3.45368 18.8168 3.8906 19.2764C4.3255 19.7373 4.93074 19.9989 5.56415 20H14.4261C15.0597 19.9989 15.6649 19.7373 16.0996 19.2764C16.5366 18.8168 16.7867 18.1762 16.7867 17.4942V5.95419C17.6552 5.72366 18.218 4.8846 18.1018 3.99339C17.9854 3.10236 17.2263 2.43583 16.3276 2.43565H13.9295V1.85017C13.9323 1.35782 13.7376 0.885049 13.3891 0.537238C13.0405 0.18961 12.567 -0.00396362 12.0747 6.15416e-05H7.91558C7.42323 -0.00396362 6.94972 0.18961 6.60118 0.537238C6.25264 0.885049 6.05796 1.35782 6.06071 1.85017V2.43565H3.66263C2.76392 2.43583 2.00481 3.10236 1.88844 3.99339C1.77226 4.8846 2.33505 5.72366 3.20357 5.95419ZM14.4261 19.0632H5.56415C4.76332 19.0632 4.14034 18.3753 4.14034 17.4942V5.99536H15.8499V17.4942C15.8499 18.3753 15.2269 19.0632 14.4261 19.0632ZM6.99747 1.85017C6.99436 1.60628 7.09024 1.37154 7.26332 1.19938C7.43622 1.02721 7.6715 0.932619 7.91558 0.936827H12.0747C12.3187 0.932619 12.554 1.02721 12.7269 1.19938C12.9 1.37136 12.9959 1.60628 12.9928 1.85017V2.43565H6.99747V1.85017ZM3.66263 3.37242H16.3276C16.7933 3.37242 17.1707 3.74987 17.1707 4.21551C17.1707 4.68114 16.7933 5.05859 16.3276 5.05859H3.66263C3.19699 5.05859 2.81954 4.68114 2.81954 4.21551C2.81954 3.74987 3.19699 3.37242 3.66263 3.37242Z" fill="black"/>
<path d="M9.99524 7.24609C9.73653 7.24609 9.52686 7.45577 9.52686 7.71448V16.5669C9.52686 16.8255 9.73653 17.0353 9.99524 17.0353C10.2539 17.0353 10.4636 16.8255 10.4636 16.5669V7.71448C10.4636 7.45577 10.2539 7.24609 9.99524 7.24609Z" fill="black"/>
</g>
<defs>
<clipPath id="clip0">
<rect width="20" height="20" fill="white"/>
</clipPath>
</defs>
</svg>
