<svg width="21" height="20" viewBox="0 0 21 20" fill="none" xmlns="http://www.w3.org/2000/svg">
<g clip-path="url(#clip0)">
<path d="M12.7911 7.24609C12.5327 7.24609 12.3232 7.45577 12.3232 7.71448V16.5669C12.3232 16.8255 12.5327 17.0353 12.7911 17.0353C13.0495 17.0353 13.2589 16.8255 13.2589 16.5669V7.71448C13.2589 7.45577 13.0495 7.24609 12.7911 7.24609Z" fill="black"/>
<path d="M7.27081 7.24609C7.01241 7.24609 6.80298 7.45577 6.80298 7.71448V16.5669C6.80298 16.8255 7.01241 17.0353 7.27081 17.0353C7.52921 17.0353 7.73864 16.8255 7.73864 16.5669V7.71448C7.73864 7.45577 7.52921 7.24609 7.27081 7.24609Z" fill="black"/>
<path d="M3.24741 5.95419V17.4942C3.24741 18.1762 3.49722 18.8168 3.93361 19.2764C4.368 19.7373 4.97252 19.9989 5.60518 20H14.4566C15.0895 19.9989 15.694 19.7373 16.1282 19.2764C16.5646 18.8168 16.8144 18.1762 16.8144 17.4942V5.95419C17.6819 5.72366 18.244 4.8846 18.128 3.99339C18.0117 3.10236 17.2535 2.43583 16.3559 2.43565H13.9606V1.85017C13.9634 1.35782 13.7689 0.885049 13.4208 0.537238C13.0727 0.18961 12.5997 -0.00396362 12.108 6.15416e-05H7.95382C7.46205 -0.00396362 6.98911 0.18961 6.64098 0.537238C6.29285 0.885049 6.09841 1.35782 6.10115 1.85017V2.43565H3.70591C2.80827 2.43583 2.05006 3.10236 1.93384 3.99339C1.81779 4.8846 2.37992 5.72366 3.24741 5.95419ZM14.4566 19.0632H5.60518C4.80531 19.0632 4.18306 18.3753 4.18306 17.4942V5.99536H15.8787V17.4942C15.8787 18.3753 15.2565 19.0632 14.4566 19.0632ZM7.03681 1.85017C7.0337 1.60628 7.12946 1.37154 7.30233 1.19938C7.47503 1.02721 7.71004 0.932619 7.95382 0.936827H12.108C12.3518 0.932619 12.5868 1.02721 12.7595 1.19938C12.9323 1.37136 13.0281 1.60628 13.025 1.85017V2.43565H7.03681V1.85017ZM3.70591 3.37242H16.3559C16.821 3.37242 17.198 3.74987 17.198 4.21551C17.198 4.68114 16.821 5.05859 16.3559 5.05859H3.70591C3.24083 5.05859 2.86382 4.68114 2.86382 4.21551C2.86382 3.74987 3.24083 3.37242 3.70591 3.37242Z" fill="black"/>
<path d="M10.0311 7.24609C9.77266 7.24609 9.56323 7.45577 9.56323 7.71448V16.5669C9.56323 16.8255 9.77266 17.0353 10.0311 17.0353C10.2895 17.0353 10.4989 16.8255 10.4989 16.5669V7.71448C10.4989 7.45577 10.2895 7.24609 10.0311 7.24609Z" fill="black"/>
</g>
<defs>
<clipPath id="clip0">
<rect width="19.9763" height="20" fill="white" transform="translate(0.0476074)"/>
</clipPath>
</defs>
</svg>
