<svg width="33" height="30" viewBox="0 0 33 31" fill="currentColor" xmlns="http://www.w3.org/2000/svg">
<path d="M26.6269 30.0002H5.37539C3.79002 30.0002 2.50018 28.7104 2.50018 27.125V11.9976C2.50018 11.4453 2.9479 10.9976 3.50025 10.9976C4.05261 10.9976 4.50032 11.4453 4.50032 11.9976V27.125C4.50032 27.6075 4.89285 28 5.37539 28H26.6269C27.1094 28 27.502 27.6075 27.502 27.125V11.9976C27.502 11.4453 27.9497 10.9976 28.502 10.9976C29.0544 10.9976 29.5021 11.4453 29.5021 11.9976V27.125C29.5021 28.7103 28.2123 30.0002 26.6269 30.0002Z" fill="currentColor" />
<path d="M31.0022 15.4974C30.7462 15.4974 30.4903 15.3998 30.2951 15.2044L17.8574 2.76688C16.8339 1.74331 15.1684 1.74331 14.1449 2.76688L1.70723 15.2045C1.3167 15.5951 0.68347 15.5951 0.292943 15.2045C-0.0976475 14.814 -0.0976475 14.1808 0.292943 13.7902L12.7306 1.35253C14.5339 -0.450844 17.4683 -0.450844 19.2717 1.35253L31.7093 13.7902C32.0999 14.1808 32.0999 14.8139 31.7093 15.2044C31.5141 15.3998 31.2581 15.4974 31.0022 15.4974Z" fill="currentColor"/>
<path d="M20.0014 30.0002H12.0008C11.4485 30.0002 11.0007 29.5524 11.0007 29.0001V20.1245C11.0007 18.4012 12.4027 16.9993 14.126 16.9993H17.8762C19.5995 16.9993 21.0014 18.4012 21.0014 20.1245V29.0001C21.0014 29.5524 20.5537 30.0002 20.0014 30.0002ZM13.0009 28H19.0013V20.1245C19.0013 19.5041 18.4966 18.9994 17.8762 18.9994H14.126C13.5056 18.9994 13.0009 19.5041 13.0009 20.1245V28Z" fill="currentColor"/>
</svg>
