<svg width="21" height="20" viewBox="0 0 21 20" fill="none" xmlns="http://www.w3.org/2000/svg">
<path d="M15.4275 8.50541V5.33814C15.436 3.90502 14.8649 2.52703 13.8455 1.52215C12.8599 0.538478 11.5698 0 10.2035 0C10.1824 0 10.157 0 10.1359 0C7.22144 0.00423998 4.85268 2.39559 4.85268 5.33814V8.50541C3.7529 8.63685 2.94922 9.56116 2.94922 10.6805V17.7952C2.94922 19.0036 3.91364 20 5.11917 20H15.1652C16.3708 20 17.3352 19.0036 17.3352 17.7952V10.6805C17.331 9.5654 16.5273 8.63685 15.4275 8.50541ZM5.69444 5.33814H5.69867C5.69867 2.86199 7.69096 0.835277 10.1401 0.835277H10.1443C11.3075 0.831037 12.4242 1.29319 13.2491 2.11575C14.1078 2.96799 14.5857 4.12974 14.5773 5.33814V8.50965H13.6467V5.33814C13.6552 4.37566 13.2745 3.45135 12.5934 2.77295C11.9505 2.12847 11.0791 1.76383 10.1697 1.76383H10.1443C8.19855 1.76383 6.62502 3.36655 6.62502 5.3339V8.50965H5.69444V5.33814ZM12.8049 5.33814V8.50965H7.47524V5.33814C7.47524 3.83718 8.66808 2.61607 10.1485 2.61607H10.1739C10.8592 2.61607 11.519 2.89167 12.0055 3.37927C12.5215 3.89654 12.8134 4.60462 12.8049 5.33814ZM16.5273 17.8079C16.5273 18.5499 15.9266 19.152 15.1864 19.152H5.13609C4.39585 19.152 3.7952 18.5499 3.7952 17.8079V10.7017C3.7952 9.95972 4.39585 9.35764 5.13609 9.35764H15.1864C15.9266 9.35764 16.5273 9.95972 16.5273 10.7017V17.8079Z" fill="black"/>
<path d="M11.6038 13.9921C11.4177 13.3349 10.8213 12.8855 10.1403 12.8855C9.29853 12.8855 8.61328 13.5681 8.61328 14.4161C8.61328 15.0988 9.06165 15.6966 9.71729 15.8832V17.0704C9.71729 17.3036 9.90763 17.4944 10.1403 17.4944C10.3729 17.4944 10.5633 17.3036 10.5633 17.0704V15.8832C11.3712 15.65 11.8407 14.802 11.6038 13.9921ZM10.1403 15.0945C9.76382 15.0945 9.45926 14.7893 9.45926 14.4119C9.45926 14.0345 9.76382 13.7293 10.1403 13.7293C10.5167 13.7293 10.8213 14.0345 10.8213 14.4119C10.8213 14.7893 10.5167 15.0945 10.1403 15.0945Z" fill="black"/>
</svg>
