<svg width="20" height="20" viewBox="0 0 20 20" fill="none" xmlns="http://www.w3.org/2000/svg">
<path d="M15.2977 8.50541V5.33814C15.3062 3.90502 14.7338 2.52703 13.712 1.52215C12.7241 0.538478 11.4309 0 10.0614 0C10.0402 0 10.0147 0 9.99352 0C7.07218 0.00423998 4.69779 2.39559 4.69779 5.33814V8.50541C3.59539 8.63685 2.78979 9.56116 2.78979 10.6805V17.7952C2.78979 19.0036 3.75651 20 4.96491 20H15.0349C16.2433 20 17.21 19.0036 17.21 17.7952V10.6805C17.2057 9.5654 16.4001 8.63685 15.2977 8.50541ZM5.54154 5.33814H5.54578C5.54578 2.86199 7.54282 0.835277 9.99777 0.835277H10.002C11.168 0.831037 12.2874 1.29319 13.1142 2.11575C13.9749 2.96799 14.454 4.12974 14.4455 5.33814V8.50965H13.5127V5.33814C13.5212 4.37566 13.1396 3.45135 12.457 2.77295C11.8125 2.12847 10.939 1.76383 10.0274 1.76383H10.002C8.05161 1.76383 6.47434 3.36655 6.47434 5.3339V8.50965H5.54154V5.33814ZM12.669 5.33814V8.50965H7.32658V5.33814C7.32658 3.83718 8.52225 2.61607 10.0062 2.61607H10.0317C10.7186 2.61607 11.38 2.89167 11.8676 3.37927C12.3849 3.89654 12.6774 4.60462 12.669 5.33814ZM16.4001 17.8079C16.4001 18.5499 15.7981 19.152 15.0561 19.152H4.98187C4.23987 19.152 3.63779 18.5499 3.63779 17.8079V10.7017C3.63779 9.95972 4.23987 9.35764 4.98187 9.35764H15.0561C15.7981 9.35764 16.4001 9.95972 16.4001 10.7017V17.8079Z" fill="black"/>
<path d="M11.4649 13.9921C11.2784 13.3349 10.6806 12.8855 9.99792 12.8855C9.15416 12.8855 8.46729 13.5681 8.46729 14.4161C8.46729 15.0988 8.91672 15.6966 9.57392 15.8832V17.0704C9.57392 17.3036 9.76472 17.4944 9.99792 17.4944C10.2311 17.4944 10.4219 17.3036 10.4219 17.0704V15.8832C11.2317 15.65 11.7024 14.802 11.4649 13.9921ZM9.99792 15.0945C9.62056 15.0945 9.31528 14.7893 9.31528 14.4119C9.31528 14.0345 9.62056 13.7293 9.99792 13.7293C10.3753 13.7293 10.6806 14.0345 10.6806 14.4119C10.6806 14.7893 10.3753 15.0945 9.99792 15.0945Z" fill="black"/>
</svg>
