<svg width="46" height="48" viewBox="0 0 46 48" fill="none" xmlns="http://www.w3.org/2000/svg">
<g clip-path="url(#clip0)">
<path d="M40.1501 8.08608H36.5969V4.39451C36.5969 1.97138 34.6993 0 32.3669 0H5.29499C2.96257 0 1.065 1.97138 1.065 4.39451V32.5194C1.065 34.9425 2.96257 36.9139 5.29499 36.9139H8.84826V40.6055C8.84826 43.0286 10.7458 45 13.0782 45H40.1501C42.4825 45 44.3801 43.0286 44.3801 40.6055V12.4805C44.3802 10.0574 42.4826 8.08608 40.1501 8.08608ZM5.29499 35.1561C3.89554 35.1561 2.757 33.9734 2.757 32.5194V4.39451C2.757 2.94063 3.89554 1.75781 5.29499 1.75781H32.3669C33.7663 1.75781 34.9049 2.94063 34.9049 4.39451V32.5194C34.9049 33.9733 33.7663 35.1561 32.3669 35.1561H5.29499ZM42.6881 40.6055C42.6881 42.0594 41.5496 43.2422 40.1501 43.2422H13.0782C11.6788 43.2422 10.5402 42.0594 10.5402 40.6055V36.9139H32.3669C34.6993 36.9139 36.5969 34.9425 36.5969 32.5194V9.84389H40.1501C41.5496 9.84389 42.6881 11.0267 42.6881 12.4806V40.6055Z" fill="black"/>
<path d="M13.0983 40.166H13.0755C12.6082 40.166 12.2295 40.5595 12.2295 41.0449C12.2295 41.5303 12.6082 41.9238 13.0755 41.9238H13.0983C13.5655 41.9238 13.9443 41.5303 13.9443 41.0449C13.9443 40.5595 13.5656 40.166 13.0983 40.166Z" fill="black"/>
<path d="M40.1512 40.166H15.5289C15.0616 40.166 14.6829 40.5595 14.6829 41.0449C14.6829 41.5303 15.0616 41.9238 15.5289 41.9238H40.1511C40.6182 41.9238 40.9971 41.5303 40.9971 41.0449C40.9971 40.5595 40.6183 40.166 40.1512 40.166Z" fill="black"/>
<path d="M10.3729 3.07617H10.3501C9.88284 3.07617 9.50409 3.46966 9.50409 3.95507C9.50409 4.44049 9.88284 4.83398 10.3501 4.83398H10.3729C10.8402 4.83398 11.2189 4.44049 11.2189 3.95507C11.2189 3.46966 10.8403 3.07617 10.3729 3.07617Z" fill="black"/>
<path d="M7.91961 3.07617H5.29406C4.82681 3.07617 4.44806 3.46966 4.44806 3.95507C4.44806 4.44049 4.82681 4.83398 5.29406 4.83398H7.91952C8.38677 4.83398 8.76552 4.44049 8.76552 3.95507C8.7656 3.46966 8.38685 3.07617 7.91961 3.07617Z" fill="black"/>
<path d="M25.8927 17.6773C25.6916 16.904 25.2128 16.2583 24.5457 15.8601L20.4073 13.3779C20.3658 13.3499 20.3239 13.323 20.2818 13.2979L16.154 10.8218C15.6811 10.4979 15.1315 10.3269 14.5624 10.3269C12.9659 10.3269 11.6671 11.6762 11.6671 13.3349V23.5838C11.6671 23.6196 11.6692 23.6549 11.6731 23.6896C11.6898 24.18 11.8231 24.6616 12.0611 25.0888C12.5763 26.013 13.5355 26.5871 14.5644 26.5871C15.0708 26.5871 15.5712 26.4472 16.0101 26.183L20.2818 23.6208C20.306 23.6062 20.3292 23.5906 20.3515 23.574L24.5155 21.0767C24.97 20.8129 25.3479 20.4248 25.6087 19.9535C25.9929 19.259 26.0938 18.4506 25.8927 17.6773ZM24.142 19.0776C24.0333 19.2739 23.8762 19.4351 23.6877 19.5438C23.6836 19.5462 23.6794 19.5486 23.6752 19.5511L19.434 22.0948C19.4097 22.1093 19.3864 22.1249 19.3641 22.1416L15.1632 24.6614C14.9806 24.7712 14.7735 24.8294 14.5644 24.8294C14.1372 24.8294 13.739 24.5913 13.5253 24.2079C13.4193 24.0178 13.3634 23.8022 13.3635 23.5847C13.3635 23.5548 13.3621 23.525 13.3591 23.4955V13.3349H13.3592C13.3592 12.6455 13.899 12.0847 14.5626 12.0847C14.8038 12.0847 15.0359 12.1582 15.2339 12.2971C15.2504 12.3087 15.2673 12.3196 15.2845 12.33L19.4375 14.8212C19.4583 14.8337 19.4783 14.8468 19.4981 14.8605C19.5122 14.87 19.5264 14.8793 19.541 14.8881L23.7014 17.3834C23.978 17.5485 24.1761 17.8157 24.2594 18.1358C24.3425 18.4559 24.3008 18.7904 24.142 19.0776Z" fill="black"/>
</g>
<defs>
<clipPath id="clip0">
<rect width="43.3152" height="45" fill="white" transform="translate(1.064)"/>
</clipPath>
</defs>
</svg>
