<svg width="33" height="31" viewBox="0 0 33 31" fill="currentColor" xmlns="http://www.w3.org/2000/svg">
<g clip-path="url(#clip0)">
<path d="M27.0942 6.0538H24.8734V3.74657C24.8734 2.23211 23.6874 1 22.2296 1H5.30969C3.85194 1 2.66595 2.23211 2.66595 3.74657V21.3246C2.66595 22.8391 3.85194 24.0712 5.30969 24.0712H7.53049V26.3784C7.53049 27.8929 8.71647 29.125 10.1742 29.125H27.0942C28.5519 29.125 29.7379 27.8929 29.7379 26.3784V8.80032C29.738 7.28586 28.552 6.0538 27.0942 6.0538ZM5.30969 22.9726C4.43504 22.9726 3.72345 22.2334 3.72345 21.3246V3.74657C3.72345 2.8379 4.43504 2.09863 5.30969 2.09863H22.2296C23.1043 2.09863 23.8159 2.8379 23.8159 3.74657V21.3246C23.8159 22.2333 23.1043 22.9726 22.2296 22.9726H5.30969ZM28.6804 26.3784C28.6804 27.2871 27.9688 28.0264 27.0942 28.0264H10.1742C9.29957 28.0264 8.58798 27.2871 8.58798 26.3784V24.0712H22.2296C23.6874 24.0712 24.8734 22.8391 24.8734 21.3246V7.15243H27.0942C27.9688 7.15243 28.6804 7.8917 28.6804 8.80037V26.3784Z" fill="currentColor"/>
<path d="M10.1865 26.1038H10.1722C9.88015 26.1038 9.64343 26.3497 9.64343 26.6531C9.64343 26.9565 9.88015 27.2024 10.1722 27.2024H10.1865C10.4785 27.2024 10.7152 26.9565 10.7152 26.6531C10.7152 26.3497 10.4785 26.1038 10.1865 26.1038Z" fill="currentColor"/>
<path d="M27.0944 26.1038H11.7055C11.4135 26.1038 11.1768 26.3497 11.1768 26.6531C11.1768 26.9565 11.4135 27.2024 11.7055 27.2024H27.0944C27.3864 27.2024 27.6231 26.9565 27.6231 26.6531C27.6231 26.3497 27.3864 26.1038 27.0944 26.1038Z" fill="currentColor"/>
<path d="M8.48309 2.92261H8.46881C8.17678 2.92261 7.94006 3.16854 7.94006 3.47192C7.94006 3.77531 8.17678 4.02124 8.46881 4.02124H8.48309C8.77512 4.02124 9.01184 3.77531 9.01184 3.47192C9.01184 3.16854 8.77517 2.92261 8.48309 2.92261Z" fill="currentColor"/>
<path d="M6.94975 2.92261H5.30878C5.01675 2.92261 4.78003 3.16854 4.78003 3.47192C4.78003 3.77531 5.01675 4.02124 5.30878 4.02124H6.94969C7.24172 4.02124 7.47844 3.77531 7.47844 3.47192C7.47849 3.16854 7.24177 2.92261 6.94975 2.92261Z" fill="currentColor"/>
<path d="M18.1829 12.0484C18.0572 11.565 17.758 11.1614 17.3411 10.9126L14.7545 9.36124C14.7286 9.34371 14.7024 9.3269 14.6761 9.31119L12.0962 7.76366C11.8007 7.56124 11.4571 7.45435 11.1015 7.45435C10.1037 7.45435 9.29187 8.29765 9.29187 9.33432V15.7399C9.29187 15.7623 9.29319 15.7844 9.29568 15.806C9.30609 16.1125 9.38937 16.4136 9.53816 16.6805C9.86017 17.2582 10.4597 17.617 11.1027 17.617C11.4192 17.617 11.7319 17.5295 12.0063 17.3644L14.6761 15.763C14.6912 15.7539 14.7057 15.7442 14.7197 15.7338L17.3221 14.173C17.6062 14.0081 17.8424 13.7655 18.0054 13.471C18.2455 13.0369 18.3086 12.5317 18.1829 12.0484ZM17.0887 12.9235C17.0208 13.0462 16.9226 13.1469 16.8048 13.2149C16.8022 13.2164 16.7996 13.2179 16.797 13.2195L14.1462 14.8093C14.131 14.8183 14.1165 14.8281 14.1025 14.8385L11.477 16.4134C11.3628 16.4821 11.2334 16.5184 11.1027 16.5184C10.8357 16.5184 10.5868 16.3696 10.4533 16.13C10.387 16.0111 10.3521 15.8764 10.3522 15.7405C10.3522 15.7218 10.3513 15.7032 10.3494 15.6847V9.33432H10.3495C10.3495 8.90349 10.6869 8.55297 11.1016 8.55297C11.2523 8.55297 11.3974 8.5989 11.5212 8.68574C11.5315 8.69294 11.542 8.69981 11.5527 8.70629L14.1484 10.2633C14.1614 10.2711 14.1739 10.2793 14.1863 10.2878C14.1951 10.2938 14.204 10.2996 14.2131 10.3051L16.8133 11.8646C16.9862 11.9678 17.11 12.1348 17.1621 12.3349C17.214 12.535 17.188 12.744 17.0887 12.9235Z" fill="currentColor"/>
</g>
<defs>
<clipPath id="clip0">
<rect width="27.072" height="28.125" fill="white" transform="translate(2.66498 1)"/>
</clipPath>
</defs>
</svg>
