<svg width="47" height="48" viewBox="0 0 47 48" fill="none" xmlns="http://www.w3.org/2000/svg">
<g clip-path="url(#clip0)">
<path d="M43.1252 43.2496C42.7812 43.2496 42.4374 43.1426 42.1441 42.9285L40.1184 41.45L38.0928 42.9285C37.5073 43.3558 36.7198 43.3567 36.1334 42.9306C35.547 42.5045 35.3044 41.7553 35.5299 41.0664L36.3101 38.683L34.2707 37.2082C33.6749 36.7772 33.4361 36.0466 33.6626 35.347C33.889 34.6474 34.5106 34.1953 35.246 34.1953H37.7648L38.5349 31.813C38.7612 31.113 39.3827 30.6607 40.1184 30.6606C40.8542 30.6606 41.4758 31.1129 41.7022 31.813L42.4723 34.1953H44.991C45.7264 34.1953 46.3479 34.6474 46.5745 35.3469C46.801 36.0466 46.5623 36.777 45.9664 37.2081L43.9269 38.683L44.7072 41.0663C44.9326 41.7553 44.6901 42.5045 44.1037 42.9306C43.8107 43.1433 43.4679 43.2496 43.1252 43.2496ZM40.1184 39.483C40.3003 39.483 40.4823 39.5394 40.6366 39.652L42.9465 41.3381L42.0568 38.6202C41.9379 38.257 42.0673 37.8586 42.377 37.6346L44.7026 35.9529H41.8326C41.4514 35.9529 41.1136 35.7071 40.9963 35.3443L40.1184 32.6283L39.2406 35.3444C39.1233 35.7071 38.7855 35.9529 38.4043 35.9529H35.5345L37.8599 37.6346C38.1696 37.8586 38.299 38.257 38.1802 38.6202L37.2905 41.3381L39.6004 39.652C39.7546 39.5394 39.9365 39.483 40.1184 39.483Z" fill="black"/>
<path d="M11.2056 43.2496C10.8616 43.2496 10.5178 43.1426 10.2244 42.9285L8.19892 41.4499L6.1733 42.9284C5.58773 43.3557 4.8003 43.3566 4.21386 42.9305C3.62741 42.5044 3.38486 41.7553 3.61036 41.0663L4.39059 38.683L2.35109 37.2082C1.75524 36.7771 1.51655 36.0466 1.74302 35.3469C1.9695 34.6473 2.59101 34.1953 3.3265 34.1953H5.84523L6.61526 31.8131C6.84165 31.1129 7.46325 30.6606 8.199 30.6606H8.19909C8.93476 30.6607 9.55627 31.113 9.78266 31.8131L10.5528 34.1953H13.0715C13.8069 34.1953 14.4284 34.6475 14.655 35.347C14.8815 36.0466 14.6427 36.7771 14.0468 37.2081L12.0074 38.683L12.7876 41.0663C13.0131 41.7553 12.7706 42.5045 12.1841 42.9306C11.8911 43.1433 11.5484 43.2496 11.2056 43.2496ZM8.19892 39.483C8.38075 39.483 8.56275 39.5394 8.71707 39.652L11.027 41.3381L10.1373 38.6202C10.0184 38.257 10.1478 37.8586 10.4575 37.6346L12.783 35.9529H9.91299C9.53175 35.9529 9.19402 35.7071 9.07669 35.3444L8.19883 32.6283L7.32096 35.3443C7.20364 35.7071 6.86591 35.9529 6.48467 35.9529H3.61476L5.94032 37.6346C6.24993 37.8586 6.37938 38.257 6.26057 38.6202L5.37084 41.3381L7.68076 39.652C7.83508 39.5394 8.017 39.483 8.19892 39.483Z" fill="black"/>
<path d="M30.0124 43.2541C29.5181 43.2541 29.0239 43.0968 28.5929 42.7823L24.1588 39.5459L19.7247 42.7823C18.8641 43.4103 17.7512 43.4115 16.8896 42.7853C16.0277 42.1592 15.685 41.1005 16.0163 40.0881L17.7243 34.871L13.2617 31.6434C12.3994 31.0199 12.0541 29.9629 12.3819 28.9505C12.7096 27.9382 13.6088 27.2842 14.6728 27.2842H20.182L21.8675 22.07C22.195 21.0572 23.0943 20.4026 24.1588 20.4026C25.2233 20.4026 26.1227 21.0571 26.4501 22.0701L28.1356 27.2842H33.6448C34.7088 27.2842 35.6081 27.9382 35.9357 28.9505C36.2635 29.9629 35.9182 31.0199 35.056 31.6434L30.5933 34.871L32.3013 40.0881C32.6327 41.1005 32.2899 42.1592 31.428 42.7853C30.9978 43.0978 30.5051 43.2541 30.0124 43.2541ZM24.1587 37.5789C24.3405 37.5789 24.5225 37.6352 24.6769 37.7479L29.6292 41.3625C29.984 41.6215 30.305 41.4286 30.3949 41.3633C30.4848 41.298 30.7674 41.0525 30.6308 40.6349L28.7234 34.808C28.6045 34.4448 28.7339 34.0464 29.0436 33.8225L34.026 30.2192C34.3816 29.9619 34.2978 29.5974 34.2636 29.4919C34.2294 29.3863 34.0838 29.0418 33.6448 29.0418H27.4961C27.1148 29.0418 26.7771 28.796 26.6598 28.4333L24.7776 22.6107C24.6426 22.1928 24.2699 22.1602 24.1588 22.1602C24.0477 22.1602 23.675 22.1928 23.54 22.6106L21.6578 28.4333C21.5405 28.796 21.2028 29.0418 20.8215 29.0418H14.6728C14.2338 29.0418 14.0882 29.3863 14.054 29.4919C14.0198 29.5974 13.936 29.962 14.2916 30.2192L19.274 33.8225C19.5836 34.0464 19.7131 34.4448 19.5942 34.808L17.6868 40.6349C17.5501 41.0525 17.8327 41.298 17.9227 41.3633C18.0125 41.4286 18.3335 41.6215 18.6884 41.3625L23.6407 37.7479C23.7949 37.6352 23.9769 37.5789 24.1587 37.5789Z" fill="black"/>
<path d="M24.1587 16.7629C23.6734 16.7629 23.2798 16.3693 23.2798 15.884V12.5793C23.2798 12.094 23.6734 11.7004 24.1587 11.7004C24.644 11.7004 25.0375 12.094 25.0375 12.5793V15.884C25.0375 16.3694 24.644 16.7629 24.1587 16.7629Z" fill="black"/>
<path d="M33.1228 17.4075C32.8978 17.4075 32.673 17.3216 32.5013 17.1501C32.1582 16.8069 32.1582 16.2504 32.5013 15.9071L37.1753 11.2332C37.5186 10.8901 38.0749 10.8901 38.4183 11.2332C38.7614 11.5763 38.7614 12.1328 38.4183 12.4761L33.7443 17.1501C33.5726 17.3217 33.3478 17.4075 33.1228 17.4075Z" fill="black"/>
<path d="M15.1946 17.4075C14.9696 17.4075 14.7448 17.3216 14.5732 17.1501L9.8992 12.4761C9.55601 12.1329 9.55601 11.5764 9.8992 11.2332C10.2425 10.8901 10.7988 10.8901 11.1421 11.2332L15.8161 15.9071C16.1593 16.2503 16.1593 16.8068 15.8161 17.1501C15.6444 17.3217 15.4196 17.4075 15.1946 17.4075Z" fill="black"/>
<path d="M24.164 9.50351C23.9328 9.50351 23.7061 9.40947 23.5427 9.24592C23.3793 9.08255 23.2852 8.85581 23.2852 8.62468C23.2852 8.39346 23.3792 8.16681 23.5427 8.00335C23.707 7.83988 23.9328 7.74585 24.164 7.74585C24.3951 7.74585 24.6218 7.8398 24.7853 8.00335C24.9496 8.16681 25.0436 8.39346 25.0436 8.62468C25.0436 8.85581 24.9496 9.08255 24.7853 9.24592C24.6218 9.40939 24.396 9.50351 24.164 9.50351Z" fill="black"/>
</g>
<defs>
<clipPath id="clip0">
<rect width="45" height="45" fill="white" transform="translate(1.65866 3)"/>
</clipPath>
</defs>
</svg>
