<svg width="33" height="31" viewBox="0 0 33 31" fill="currentColor" xmlns="http://www.w3.org/2000/svg">
<g clip-path="url(#clip0)">
<path d="M16.9414 30H15.0586C13.5358 30 12.2968 28.7611 12.2968 27.2383V26.6013C11.6494 26.3945 11.0204 26.1334 10.4161 25.8207L9.96473 26.2721C8.87143 27.3667 7.12012 27.3346 6.05857 26.2717L4.72785 24.941C3.66443 23.8788 3.63385 22.128 4.7282 21.0349L5.17926 20.5838C4.86654 19.9795 4.60551 19.3506 4.39861 18.7031H3.7617C2.23896 18.7031 1 17.4642 1 15.9414V14.0586C1 12.5358 2.23896 11.2969 3.76176 11.2969H4.39867C4.60557 10.6494 4.8666 10.0205 5.17932 9.41619L4.72791 8.96484C3.6342 7.8723 3.66438 6.12141 4.72826 5.05869L6.0591 3.72791C7.12311 2.66244 8.874 2.63584 9.96519 3.72826L10.4162 4.17926C11.0205 3.8666 11.6495 3.60551 12.2969 3.39861V2.7617C12.2969 1.23891 13.5358 0 15.0586 0H16.9414C18.4642 0 19.7031 1.23891 19.7031 2.7617V3.39867C20.3505 3.60551 20.9795 3.8666 21.5838 4.17932L22.0352 3.72791C23.1285 2.63326 24.8798 2.66537 25.9414 3.72832L27.2721 5.05898C28.3355 6.12123 28.3661 7.87195 27.2717 8.96514L26.8207 9.41619C27.1334 10.0205 27.3944 10.6494 27.6013 11.2969H28.2382C29.761 11.2969 31 12.5358 31 14.0586V15.9414C31 17.4642 29.761 18.7031 28.2382 18.7031H27.6013C27.3944 19.3506 27.1334 19.9795 26.8207 20.5838L27.2721 21.0352C28.3658 22.1278 28.3356 23.8787 27.2717 24.9414L25.9409 26.2721C24.8769 27.3376 23.126 27.3642 22.0348 26.2718L21.5838 25.8208C20.9795 26.1335 20.3505 26.3946 19.7031 26.6014V27.2384C19.7031 28.7611 18.4642 30 16.9414 30ZM10.71 23.9748C11.5495 24.4713 12.453 24.8463 13.3954 25.0896C13.7835 25.1897 14.0547 25.5397 14.0547 25.9406V27.2383C14.0547 27.7918 14.5051 28.2422 15.0586 28.2422H16.9414C17.495 28.2422 17.9454 27.7918 17.9454 27.2383V25.9406C17.9454 25.5397 18.2165 25.1897 18.6047 25.0896C19.5471 24.8463 20.4506 24.4713 21.2901 23.9748C21.6355 23.7705 22.0752 23.8261 22.359 24.1099L23.2782 25.0291C23.6746 25.4259 24.311 25.4167 24.6976 25.0296L26.0293 23.698C26.4149 23.3128 26.4278 22.6762 26.0296 22.2785L25.11 21.3589C24.8263 21.0752 24.7707 20.6354 24.9749 20.29C25.4714 19.4506 25.8464 18.5471 26.0896 17.6046C26.1898 17.2165 26.5398 16.9454 26.9406 16.9454H28.2383C28.7918 16.9454 29.2422 16.495 29.2422 15.9415V14.0586C29.2422 13.5051 28.7918 13.0547 28.2383 13.0547H26.9406C26.5398 13.0547 26.1898 12.7836 26.0896 12.3955C25.8464 11.453 25.4713 10.5495 24.9749 9.7101C24.7707 9.36475 24.8263 8.92494 25.11 8.64123L26.0293 7.72195C26.4266 7.32504 26.4163 6.68871 26.0296 6.30252L24.6981 4.97098C24.3121 4.58449 23.6755 4.57318 23.2786 4.97062L22.3591 5.89025C22.0754 6.17402 21.6354 6.22957 21.2901 6.02531C20.4507 5.52885 19.5471 5.15379 18.6047 4.91057C18.2166 4.81043 17.9454 4.46039 17.9454 4.05955V2.7617C17.9454 2.20816 17.495 1.75781 16.9415 1.75781H15.0587C14.5052 1.75781 14.0547 2.20816 14.0547 2.7617V4.05943C14.0547 4.46027 13.7836 4.81031 13.3954 4.91045C12.453 5.15367 11.5495 5.52873 10.71 6.0252C10.3646 6.22939 9.92482 6.17385 9.64111 5.89014L8.72189 4.97086C8.32557 4.57406 7.68906 4.58326 7.30252 4.97045L5.97086 6.30205C5.5852 6.68725 5.5723 7.32375 5.97051 7.72148L6.89014 8.64111C7.17385 8.92482 7.22939 9.36463 7.0252 9.70998C6.52873 10.5494 6.15373 11.4529 5.91051 12.3954C5.81031 12.7835 5.46027 13.0546 5.05949 13.0546H3.76176C3.20822 13.0547 2.75781 13.505 2.75781 14.0586V15.9414C2.75781 16.495 3.20822 16.9453 3.76176 16.9453H5.05943C5.46027 16.9453 5.81025 17.2165 5.91045 17.6045C6.15367 18.547 6.52873 19.4505 7.02514 20.29C7.22934 20.6353 7.17379 21.0751 6.89008 21.3588L5.9708 22.2781C5.57342 22.675 5.58379 23.3113 5.97045 23.6975L7.30199 25.0291C7.68795 25.4156 8.32451 25.4269 8.72143 25.0294L9.641 24.1098C9.85006 23.9008 10.285 23.7234 10.71 23.9748Z" fill="currentColor"/>
<path d="M16 21.5273C12.4008 21.5273 9.47266 18.5992 9.47266 15C9.47266 11.4008 12.4008 8.47266 16 8.47266C19.5992 8.47266 22.5273 11.4008 22.5273 15C22.5273 18.5992 19.5992 21.5273 16 21.5273ZM16 10.2305C13.37 10.2305 11.2305 12.3701 11.2305 15C11.2305 17.6299 13.3701 19.7695 16 19.7695C18.6299 19.7695 20.7695 17.6299 20.7695 15C20.7695 12.3701 18.63 10.2305 16 10.2305Z" fill="currentColor"/>
</g>
<defs>
<clipPath id="clip0">
<rect width="30" height="30" fill="white" transform="translate(1)"/>
</clipPath>
</defs>
</svg>
