<svg width="18" height="20" viewBox="0 0 18 20" fill="none" xmlns="http://www.w3.org/2000/svg">
<path d="M2.54978 8.21563C2.55677 8.2193 2.56109 8.2253 2.56841 8.22863C2.57572 8.23197 2.58769 8.23496 2.59667 8.23896L2.60299 8.2413C4.07056 8.80813 5.6959 8.80813 7.16348 8.2413L7.1698 8.23896C7.17878 8.23496 7.18908 8.23263 7.19806 8.22863C7.20704 8.22463 7.2097 8.2193 7.21669 8.21563C7.27959 8.183 7.33015 8.13069 7.36068 8.06663C7.36533 8.05663 7.37198 8.0483 7.37564 8.03796C7.79595 6.80101 7.42795 5.4321 6.44452 4.5743C7.09369 3.75564 7.00406 2.57389 6.2389 1.863C5.47374 1.15211 4.2914 1.15211 3.52624 1.863C2.76107 2.57389 2.67145 3.75564 3.32062 4.5743C2.3394 5.43001 1.97049 6.79476 2.3865 8.02996C2.3865 8.03296 2.40579 8.06663 2.40579 8.06663C2.43642 8.13062 2.48695 8.18291 2.54978 8.21563ZM2.98209 7.67096C2.76888 6.90678 2.92091 6.08669 3.39378 5.4503C3.51515 5.28786 3.65982 5.14431 3.82309 5.0243C4.47047 5.43626 5.297 5.43626 5.94438 5.0243C6.73176 5.65549 7.06356 6.69916 6.78571 7.67063C5.55544 8.10957 4.21177 8.10969 2.98142 7.67096H2.98209ZM4.88323 1.99996C5.61787 1.99996 6.2134 2.59692 6.2134 3.3333C6.2134 4.06968 5.61787 4.66663 4.88323 4.66663C4.1486 4.66663 3.55306 4.06968 3.55306 3.3333C3.55306 2.59692 4.1486 1.99996 4.88323 1.99996Z" fill="black"/>
<path d="M8.54128 2.66667H9.87145C10.0551 2.66667 10.204 2.51743 10.204 2.33333C10.204 2.14924 10.0551 2 9.87145 2H8.54128C8.35762 2 8.20874 2.14924 8.20874 2.33333C8.20874 2.51743 8.35762 2.66667 8.54128 2.66667Z" fill="black"/>
<path d="M11.2017 2.66667H13.5295C13.7132 2.66667 13.862 2.51743 13.862 2.33333C13.862 2.14924 13.7132 2 13.5295 2H11.2017C11.018 2 10.8691 2.14924 10.8691 2.33333C10.8691 2.51743 11.018 2.66667 11.2017 2.66667Z" fill="black"/>
<path d="M13.5294 5.33325H12.1992C12.0156 5.33325 11.8667 5.48249 11.8667 5.66659C11.8667 5.85068 12.0156 5.99992 12.1992 5.99992H13.5294C13.7131 5.99992 13.8619 5.85068 13.8619 5.66659C13.8619 5.48249 13.7131 5.33325 13.5294 5.33325Z" fill="black"/>
<path d="M8.54128 5.99992H10.8691C11.0528 5.99992 11.2016 5.85068 11.2016 5.66659C11.2016 5.48249 11.0528 5.33325 10.8691 5.33325H8.54128C8.35763 5.33325 8.20874 5.48249 8.20874 5.66659C8.20874 5.85068 8.35763 5.99992 8.54128 5.99992Z" fill="black"/>
<path d="M8.54128 4.33342H13.5294C13.7131 4.33342 13.862 4.18418 13.862 4.00008C13.862 3.81599 13.7131 3.66675 13.5294 3.66675H8.54128C8.35762 3.66675 8.20874 3.81599 8.20874 4.00008C8.20874 4.18418 8.35762 4.33342 8.54128 4.33342Z" fill="black"/>
<path d="M8.54128 7.66667H13.5294C13.7131 7.66667 13.862 7.51743 13.862 7.33333C13.862 7.14924 13.7131 7 13.5294 7H8.54128C8.35762 7 8.20874 7.14924 8.20874 7.33333C8.20874 7.51743 8.35762 7.66667 8.54128 7.66667Z" fill="black"/>
<path d="M10.7026 9.6665C8.77422 9.6665 7.21094 11.2335 7.21094 13.1665C7.21094 15.0995 8.77422 16.6665 10.7026 16.6665C12.631 16.6665 14.1943 15.0995 14.1943 13.1665C14.1921 11.2344 12.6301 9.66871 10.7026 9.6665ZM10.7026 15.9998C9.55938 15.9998 8.52869 15.3095 8.09119 14.2508C7.65368 13.192 7.89551 11.9734 8.70392 11.163C9.51232 10.3527 10.7281 10.1103 11.7843 10.5488C12.8406 10.9874 13.5292 12.0205 13.5292 13.1665C13.5274 14.7305 12.263 15.998 10.7026 15.9998Z" fill="black"/>
<path d="M14.7409 15.8C15.2524 15.0175 15.5249 14.1022 15.5247 13.1667V1.33333C15.5247 0.596954 14.9292 0 14.1945 0H2.22299C1.48836 0 0.892822 0.596954 0.892822 1.33333V16.6667C0.892822 17.403 1.48836 18 2.22299 18H10.7028C11.6362 18.0002 12.5492 17.7271 13.3299 17.2143L15.8167 19.7043C16.0665 19.9637 16.4365 20.0679 16.7846 19.9769C17.1326 19.8859 17.4047 19.6138 17.4963 19.2652C17.5879 18.9165 17.4848 18.5454 17.2266 18.2943L14.7409 15.8ZM10.7028 17.3333C8.4071 17.3333 6.54605 15.4679 6.54605 13.1667C6.54605 10.8655 8.4071 9 10.7028 9C12.9986 9 14.8596 10.8655 14.8596 13.1667C14.857 15.4668 12.9975 17.3308 10.7028 17.3333ZM2.22299 17.3333C1.85568 17.3333 1.55791 17.0349 1.55791 16.6667V1.33333C1.55791 0.965144 1.85568 0.666667 2.22299 0.666667H14.1945C14.5618 0.666667 14.8596 0.965144 14.8596 1.33333V10.7293C13.842 8.98005 11.8436 8.05299 9.85464 8.40747C7.86566 8.76194 6.30858 10.3227 5.95484 12.3163C5.60111 14.31 6.52587 16.3132 8.27094 17.3333H2.22299ZM16.7551 19.236C16.6258 19.363 16.4188 19.363 16.2895 19.236L13.8656 16.809C14.0331 16.6628 14.1903 16.5052 14.3362 16.3373L16.7578 18.7667C16.8211 18.8284 16.8566 18.9134 16.8561 19.0019C16.8556 19.0904 16.8191 19.175 16.7551 19.236Z" fill="black"/>
<path d="M5.54854 10H2.88821C2.70455 10 2.55566 10.1492 2.55566 10.3333C2.55566 10.5174 2.70455 10.6667 2.88821 10.6667H5.54854C5.7322 10.6667 5.88108 10.5174 5.88108 10.3333C5.88108 10.1492 5.7322 10 5.54854 10Z" fill="black"/>
<path d="M5.216 15H2.88821C2.70455 15 2.55566 15.1492 2.55566 15.3333C2.55566 15.5174 2.70455 15.6667 2.88821 15.6667H5.216C5.39966 15.6667 5.54855 15.5174 5.54855 15.3333C5.54855 15.1492 5.39966 15 5.216 15Z" fill="black"/>
<path d="M4.88347 11.6665H2.88821C2.70455 11.6665 2.55566 11.8157 2.55566 11.9998C2.55566 12.1839 2.70455 12.3332 2.88821 12.3332H4.88347C5.06713 12.3332 5.21601 12.1839 5.21601 11.9998C5.21601 11.8157 5.06713 11.6665 4.88347 11.6665Z" fill="black"/>
<path d="M4.88347 13.3335H2.88821C2.70455 13.3335 2.55566 13.4827 2.55566 13.6668C2.55566 13.8509 2.70455 14.0001 2.88821 14.0001H4.88347C5.06713 14.0001 5.21601 13.8509 5.21601 13.6668C5.21601 13.4827 5.06713 13.3335 4.88347 13.3335Z" fill="black"/>
</svg>
