<svg width="33" height="31" viewBox="0 0 33 31" fill="currentColor" xmlns="http://www.w3.org/2000/svg">
<g clip-path="url(#clip0)">
<path d="M16.8026 13.2458C19.3391 13.2458 21.4027 11.102 21.4027 8.4668C21.4027 5.83162 19.3391 3.68774 16.8026 3.68774C14.2661 3.68774 12.2025 5.83162 12.2025 8.4668C12.2025 11.102 14.2661 13.2458 16.8026 13.2458ZM16.8026 5.33569C18.4644 5.33569 19.8165 6.7403 19.8165 8.4668C19.8165 10.1933 18.4644 11.5979 16.8026 11.5979C15.1407 11.5979 13.7887 10.1933 13.7887 8.4668C13.7887 6.7403 15.1407 5.33569 16.8026 5.33569Z" fill="currentColor"/>
<path d="M26.1086 13.2458C27.7122 13.2458 29.0167 11.8905 29.0167 10.2246C29.0167 8.5587 27.7122 7.20337 26.1086 7.20337C24.5051 7.20337 23.2005 8.5587 23.2005 10.2246C23.2005 11.8905 24.5051 13.2458 26.1086 13.2458ZM26.1086 8.85132C26.8375 8.85132 27.4305 9.46738 27.4305 10.2246C27.4305 10.9818 26.8375 11.5979 26.1086 11.5979C25.3797 11.5979 24.7867 10.9818 24.7867 10.2246C24.7867 9.46738 25.3797 8.85132 26.1086 8.85132Z" fill="currentColor"/>
<path d="M26.7484 15.1135H25.5217C24.0761 15.1135 22.8283 16.0008 22.2597 17.2752C21.089 15.9475 19.4074 15.1135 17.5417 15.1135H16.0635C14.1979 15.1135 12.5163 15.9475 11.3456 17.2752C10.7769 16.0008 9.52906 15.1135 8.08351 15.1135H6.85681C4.87717 15.1135 3.2666 16.7766 3.2666 18.8209V24.8199C3.2666 25.7074 3.96423 26.4294 4.82176 26.4294H9.67182C9.75315 27.4127 10.549 28.1873 11.5163 28.1873H22.089C23.0562 28.1873 23.852 27.4127 23.9334 26.4294H28.7281C29.6162 26.4294 30.3386 25.6818 30.3386 24.7628V18.8209C30.3386 16.7766 28.728 15.1135 26.7484 15.1135ZM4.85285 18.8209C4.85285 17.6853 5.75183 16.7615 6.85681 16.7615H8.08351C9.18849 16.7615 10.0875 17.6853 10.0875 18.8209V19.3851C9.55412 20.8278 9.66447 21.6924 9.66447 24.7815H4.85285V18.8209ZM22.3545 26.2635C22.3545 26.4156 22.2354 26.5393 22.089 26.5393H11.5162C11.3698 26.5393 11.2507 26.4155 11.2507 26.2635V21.7615C11.2507 19.0044 13.4097 16.7615 16.0635 16.7615H17.5417C20.1955 16.7615 22.3545 19.0044 22.3545 21.7614V26.2635ZM28.7523 24.7628C28.7523 24.7912 29.048 24.7815 23.9407 24.7815C23.9407 21.6696 24.0502 20.8254 23.5177 19.3851V18.8209C23.5177 17.6853 24.4167 16.7615 25.5217 16.7615H26.7484C27.8534 16.7615 28.7523 17.6853 28.7523 18.8209V24.7628Z" fill="currentColor"/>
<path d="M7.49662 13.2458C9.10016 13.2458 10.4047 11.8905 10.4047 10.2246C10.4047 8.5587 9.10016 7.20337 7.49662 7.20337C5.89309 7.20337 4.5885 8.5587 4.5885 10.2246C4.5885 11.8905 5.89309 13.2458 7.49662 13.2458ZM7.49662 8.85132C8.22551 8.85132 8.8185 9.46738 8.8185 10.2246C8.8185 10.9818 8.22551 11.5979 7.49662 11.5979C6.76774 11.5979 6.17475 10.9818 6.17475 10.2246C6.17475 9.46738 6.76774 8.85132 7.49662 8.85132Z" fill="currentColor"/>
</g>
<defs>
<clipPath id="clip0">
<rect width="27.072" height="28.125" fill="white" transform="translate(3.2666 1.875)"/>
</clipPath>
</defs>
</svg>
