<svg width="21" height="20" viewBox="0 0 21 20" fill="none" xmlns="http://www.w3.org/2000/svg">
<g clip-path="url(#clip0)">
<path d="M3.43885 8.21563C3.44584 8.2193 3.45017 8.2253 3.45749 8.22863C3.46482 8.23197 3.4768 8.23496 3.48579 8.23896L3.49212 8.2413C4.96144 8.80813 6.58871 8.80813 8.05803 8.2413L8.06436 8.23896C8.07335 8.23496 8.08367 8.23263 8.09266 8.22863C8.10165 8.22463 8.10431 8.2193 8.1113 8.21563C8.17428 8.183 8.2249 8.13069 8.25546 8.06663C8.26013 8.05663 8.26678 8.0483 8.27045 8.03796C8.69126 6.80101 8.32282 5.4321 7.33822 4.5743C7.98816 3.75564 7.89843 2.57389 7.13236 1.863C6.36629 1.15211 5.18253 1.15211 4.41646 1.863C3.65039 2.57389 3.56066 3.75564 4.2106 4.5743C3.22821 5.43001 2.85886 6.79476 3.27538 8.02996C3.27538 8.03296 3.29469 8.06663 3.29469 8.06663C3.32536 8.13062 3.37595 8.18291 3.43885 8.21563ZM3.87167 7.67096C3.65821 6.90678 3.81042 6.08669 4.28385 5.4503C4.40536 5.28786 4.55021 5.14431 4.71367 5.0243C5.36182 5.43626 6.18933 5.43626 6.83748 5.0243C7.6258 5.65549 7.958 6.69916 7.67981 7.67063C6.44808 8.10957 5.10281 8.10969 3.871 7.67096H3.87167ZM5.77508 1.99996C6.51058 1.99996 7.10683 2.59692 7.10683 3.3333C7.10683 4.06968 6.51058 4.66663 5.77508 4.66663C5.03957 4.66663 4.44332 4.06968 4.44332 3.3333C4.44332 2.59692 5.03957 1.99996 5.77508 1.99996Z" fill="black"/>
<path d="M9.43743 2.66667H10.7692C10.9531 2.66667 11.1021 2.51743 11.1021 2.33333C11.1021 2.14924 10.9531 2 10.7692 2H9.43743C9.25355 2 9.10449 2.14924 9.10449 2.33333C9.10449 2.51743 9.25355 2.66667 9.43743 2.66667Z" fill="black"/>
<path d="M12.101 2.66667H14.4316C14.6155 2.66667 14.7645 2.51743 14.7645 2.33333C14.7645 2.14924 14.6155 2 14.4316 2H12.101C11.9171 2 11.7681 2.14924 11.7681 2.33333C11.7681 2.51743 11.9171 2.66667 12.101 2.66667Z" fill="black"/>
<path d="M14.4315 5.33325H13.0998C12.9159 5.33325 12.7668 5.48249 12.7668 5.66659C12.7668 5.85068 12.9159 5.99992 13.0998 5.99992H14.4315C14.6154 5.99992 14.7645 5.85068 14.7645 5.66659C14.7645 5.48249 14.6154 5.33325 14.4315 5.33325Z" fill="black"/>
<path d="M9.43743 5.99992H11.768C11.9519 5.99992 12.1009 5.85068 12.1009 5.66659C12.1009 5.48249 11.9519 5.33325 11.768 5.33325H9.43743C9.25355 5.33325 9.10449 5.48249 9.10449 5.66659C9.10449 5.85068 9.25355 5.99992 9.43743 5.99992Z" fill="black"/>
<path d="M9.43743 4.33342H14.4315C14.6154 4.33342 14.7644 4.18418 14.7644 4.00008C14.7644 3.81599 14.6154 3.66675 14.4315 3.66675H9.43743C9.25355 3.66675 9.10449 3.81599 9.10449 4.00008C9.10449 4.18418 9.25355 4.33342 9.43743 4.33342Z" fill="black"/>
<path d="M9.43743 7.66667H14.4315C14.6154 7.66667 14.7644 7.51743 14.7644 7.33333C14.7644 7.14924 14.6154 7 14.4315 7H9.43743C9.25355 7 9.10449 7.14924 9.10449 7.33333C9.10449 7.51743 9.25355 7.66667 9.43743 7.66667Z" fill="black"/>
<path d="M11.6013 9.6665C9.67061 9.6665 8.10547 11.2335 8.10547 13.1665C8.10547 15.0995 9.67061 16.6665 11.6013 16.6665C13.532 16.6665 15.0972 15.0995 15.0972 13.1665C15.095 11.2344 13.5311 9.66871 11.6013 9.6665ZM11.6013 15.9998C10.4567 15.9998 9.42479 15.3095 8.98676 14.2508C8.54874 13.192 8.79086 11.9734 9.60022 11.163C10.4096 10.3527 11.6268 10.1103 12.6843 10.5488C13.7418 10.9874 14.4313 12.0205 14.4313 13.1665C14.4295 14.7305 13.1635 15.998 11.6013 15.9998Z" fill="black"/>
<path d="M15.6443 15.8C16.1565 15.0175 16.4292 14.1022 16.4291 13.1667V1.33333C16.4291 0.596954 15.8328 0 15.0973 0H3.11154C2.37603 0 1.77979 0.596954 1.77979 1.33333V16.6667C1.77979 17.403 2.37603 18 3.11154 18H11.6015C12.5359 18.0002 13.4501 17.7271 14.2317 17.2143L16.7214 19.7043C16.9715 19.9637 17.3419 20.0679 17.6904 19.9769C18.0389 19.8859 18.3113 19.6138 18.403 19.2652C18.4947 18.9165 18.3915 18.5454 18.133 18.2943L15.6443 15.8ZM11.6015 17.3333C9.303 17.3333 7.43973 15.4679 7.43973 13.1667C7.43973 10.8655 9.303 9 11.6015 9C13.8999 9 15.7632 10.8655 15.7632 13.1667C15.7606 15.4668 13.8988 17.3308 11.6015 17.3333ZM3.11154 17.3333C2.74378 17.3333 2.44566 17.0349 2.44566 16.6667V1.33333C2.44566 0.965144 2.74378 0.666667 3.11154 0.666667H15.0973C15.4651 0.666667 15.7632 0.965144 15.7632 1.33333V10.7293C14.7443 8.98005 12.7436 8.05299 10.7523 8.40747C8.76092 8.76194 7.20198 10.3227 6.84782 12.3163C6.49367 14.31 7.41953 16.3132 9.16668 17.3333H3.11154ZM17.6609 19.236C17.5315 19.363 17.3243 19.363 17.1948 19.236L14.768 16.809C14.9357 16.6628 15.0931 16.5052 15.2391 16.3373L17.6636 18.7667C17.727 18.8284 17.7625 18.9134 17.762 19.0019C17.7615 19.0904 17.725 19.175 17.6609 19.236Z" fill="black"/>
<path d="M6.44102 10H3.77752C3.59364 10 3.44458 10.1492 3.44458 10.3333C3.44458 10.5174 3.59364 10.6667 3.77752 10.6667H6.44102C6.62489 10.6667 6.77395 10.5174 6.77395 10.3333C6.77395 10.1492 6.62489 10 6.44102 10Z" fill="black"/>
<path d="M6.10808 15H3.77752C3.59364 15 3.44458 15.1492 3.44458 15.3333C3.44458 15.5174 3.59364 15.6667 3.77752 15.6667H6.10808C6.29196 15.6667 6.44102 15.5174 6.44102 15.3333C6.44102 15.1492 6.29196 15 6.10808 15Z" fill="black"/>
<path d="M5.77515 11.6665H3.77752C3.59364 11.6665 3.44458 11.8157 3.44458 11.9998C3.44458 12.1839 3.59364 12.3332 3.77752 12.3332H5.77515C5.95903 12.3332 6.10809 12.1839 6.10809 11.9998C6.10809 11.8157 5.95903 11.6665 5.77515 11.6665Z" fill="black"/>
<path d="M5.77515 13.3335H3.77752C3.59364 13.3335 3.44458 13.4827 3.44458 13.6668C3.44458 13.8509 3.59364 14.0001 3.77752 14.0001H5.77515C5.95903 14.0001 6.10809 13.8509 6.10809 13.6668C6.10809 13.4827 5.95903 13.3335 5.77515 13.3335Z" fill="black"/>
</g>
<defs>
<clipPath id="clip0">
<rect width="19.9763" height="20" fill="white" transform="translate(0.11499)"/>
</clipPath>
</defs>
</svg>
